<?xml version="1.0" encoding="UTF-8"?>
<svg version="1.1" xmlns="http://www.w3.org/2000/svg" width="1278" height="616">
<path d="M0 0 C13.14888489 11.86414497 25.16980183 24.46558286 35.84472656 38.60791016 C36.72904815 39.77902125 37.61833082 40.94640377 38.51269531 42.10986328 C72.70759439 86.61315165 92.87364899 139.76691443 99.17871094 195.37451172 C99.32445557 196.64452026 99.32445557 196.64452026 99.47314453 197.94018555 C100.36249148 206.90842313 100.33051055 215.87279505 100.30908203 224.87524414 C100.30370074 227.56711402 100.30906768 230.25881863 100.31542969 232.95068359 C100.31476914 234.68961625 100.31348846 236.4285488 100.31152344 238.16748047 C100.31354767 238.95833542 100.3155719 239.74919037 100.31765747 240.56401062 C100.30150477 244.46576511 100.12276169 248.27851072 99.67062378 252.15596008 C99.57897886 252.95063848 99.48733395 253.74531687 99.39291191 254.56407642 C99.28688243 255.46024189 99.28688243 255.46024189 99.17871094 256.37451172 C40.8466346 256.39162124 -17.48544198 256.40754299 -75.81752014 256.41685486 C-76.68014146 256.41699292 -77.54276278 256.41713097 -78.43152414 256.41727321 C-97.17627378 256.42026576 -115.92102344 256.42303599 -134.66577315 256.42557705 C-143.85750437 256.42682444 -153.04923559 256.42812099 -162.2409668 256.42944336 C-163.61303625 256.4296395 -163.61303625 256.4296395 -165.01282428 256.4298396 C-194.68894289 256.43410488 -224.36505961 256.44161912 -254.04117707 256.45080894 C-284.52407375 256.4602315 -315.00696939 256.46639483 -345.48986751 256.46842671 C-349.79025289 256.46871489 -354.09063826 256.46904052 -358.39102364 256.46938896 C-359.23744431 256.46945638 -360.08386498 256.46952381 -360.95593476 256.46959327 C-374.60940849 256.47077737 -388.26287897 256.47542183 -401.91635137 256.48134375 C-415.62546822 256.48721656 -429.33458185 256.48948333 -443.04369991 256.4880131 C-451.19966689 256.48724953 -459.3556221 256.4893068 -467.51158696 256.49530926 C-473.58469404 256.49947553 -479.65778831 256.49848679 -485.73089654 256.49541061 C-488.20061569 256.49498467 -490.6703358 256.49628252 -493.14005303 256.4993949 C-496.47352569 256.50335458 -499.80693885 256.5012778 -503.14041042 256.49755955 C-504.11964282 256.50018656 -505.09887522 256.50281357 -506.10778132 256.50552019 C-506.98727994 256.5032729 -507.86677856 256.50102561 -508.77292866 256.49871022 C-509.53645381 256.4988662 -510.29997897 256.49902218 -511.08664125 256.49918288 C-512.82128906 256.37451172 -512.82128906 256.37451172 -513.82128906 255.37451172 C-523.2763082 180.6681877 -497.69101415 100.28838071 -452.20703125 41.28027344 C-437.15730235 22.07689089 -420.26910024 3.19948253 -400.82128906 -11.62548828 C-399.59614423 -12.60056184 -398.3722855 -13.5772526 -397.14941406 -14.55517578 C-313.2339473 -81.01906147 -199.68217186 -96.49108389 0 0 Z " fill="#B2B3B6" transform="translate(1177.8212890625,80.62548828125)"/>
<path d="M0 0 C178.86 0 357.72 0 542 0 C533.0546642 22.3633395 516.55031845 43.01311859 500.26171875 60.5546875 C498.3095112 62.6653644 496.42693722 64.81227557 494.5625 67 C487.66469059 74.92271977 480.06051625 82.27180049 472 89 C471.50032715 89.42941895 471.0006543 89.85883789 470.48583984 90.30126953 C407.76973893 144.1173642 326.02627798 168.13622329 244.19140625 162.53515625 C170.16291813 156.30744151 102.95345031 122.86303936 50.625 70.875 C50.11425934 70.36970764 49.60351868 69.86441528 49.07730103 69.34381104 C42.25957412 62.58031184 35.92656262 55.57012516 30 48 C29.45714355 47.31115723 28.91428711 46.62231445 28.35498047 45.91259766 C20.62980344 35.99926103 13.61642343 25.68072202 7 15 C6.61875977 14.38479492 6.23751953 13.76958984 5.84472656 13.13574219 C0 3.62558962 0 3.62558962 0 0 Z " fill="#ED1C24" transform="translate(700,453)"/>
<path d="M0 0 C202.95 0 405.9 0 615 0 C615 20 615 20 614 29 C555.66792367 29.01710952 497.33584708 29.03303127 439.00376892 29.04234314 C438.1411476 29.0424812 437.27852628 29.04261925 436.38976492 29.04276149 C417.64501529 29.04575404 398.90026562 29.04852427 380.15551591 29.05106533 C370.96378469 29.05231272 361.77205348 29.05360927 352.58032227 29.05493164 C351.20825281 29.05512778 351.20825281 29.05512778 349.80846478 29.05532788 C320.13234617 29.05959317 290.45622946 29.0671074 260.780112 29.07629722 C230.29721531 29.08571978 199.81431967 29.09188311 169.33142155 29.09391499 C165.03103617 29.09420317 160.7306508 29.0945288 156.43026543 29.09487724 C155.58384476 29.09494467 154.73742408 29.09501209 153.8653543 29.09508156 C140.21188058 29.09626565 126.55841009 29.10091011 112.90493769 29.10683203 C99.19582084 29.11270485 85.48670722 29.11497161 71.77758915 29.11350138 C63.62162217 29.11273781 55.46566697 29.11479508 47.3097021 29.12079754 C41.23659502 29.12496381 35.16350075 29.12397508 29.09039252 29.12089889 C26.62067337 29.12047295 24.15095326 29.1217708 21.68123604 29.12488318 C18.34776337 29.12884286 15.01435021 29.12676608 11.68087864 29.12304783 C10.70164624 29.12567484 9.72241385 29.12830186 8.71350774 29.13100848 C7.39425981 29.12763754 7.39425981 29.12763754 6.04836041 29.1241985 C5.28483525 29.12435448 4.5213101 29.12451046 3.73464781 29.12467116 C2 29 2 29 1 28 C0.75692677 25.75532371 0.58234523 23.50314804 0.4375 21.25 C0.35371094 20.01765625 0.26992188 18.7853125 0.18359375 17.515625 C-0.05360348 11.68158254 0 5.83886239 0 0 Z " fill="#ED1C24" transform="translate(663,308)"/>
<path d="M0 0 C200.31 0 400.62 0 607 0 C606 12 606 12 602 29 C405.32 29 208.64 29 6 29 C4.03274489 23.09823466 2.37655139 17.72875349 1.3125 11.6875 C1.11817383 10.65399414 1.11817383 10.65399414 0.91992188 9.59960938 C0.3219021 6.31841094 0 3.35000462 0 0 Z " fill="#ED1C24" transform="translate(667,356)"/>
<path d="M0 0 C192.72 0 385.44 0 584 0 C577 20 577 20 573 28 C387.21 28 201.42 28 10 28 C0 3 0 3 0 0 Z " fill="#ED1C24" transform="translate(679,405)"/>
<path d="M0 0 C0.89832047 -0.0071553 1.79664093 -0.01431061 2.72218323 -0.02168274 C5.68054642 -0.03853978 8.63738782 -0.0191846 11.59570312 0.00219727 C13.65783819 0.00136829 15.71997318 -0.00109216 17.78210449 -0.00511169 C22.09956806 -0.00796765 26.41651228 0.00671213 30.73388672 0.03417969 C36.26220417 0.06826177 41.78959312 0.06224214 47.31795502 0.04351711 C51.57484649 0.0329379 55.8315227 0.04189339 60.08839417 0.05690193 C62.12650411 0.06207742 64.1646366 0.06160965 66.20274353 0.05535698 C69.05362114 0.04989374 71.90317909 0.07031563 74.75390625 0.09765625 C75.59252701 0.09113037 76.43114777 0.08460449 77.29518127 0.07788086 C82.61508272 0.16443428 85.67890699 1.07568189 89.87695312 4.63110352 C92.83000492 7.68837494 93.25938696 9.80348658 93.296875 14.00708008 C93.3207428 15.61960663 93.3207428 15.61960663 93.34509277 17.26470947 C93.34529419 18.42202576 93.34549561 19.57934204 93.34570312 20.77172852 C93.35712341 22.56595245 93.35712341 22.56595245 93.36877441 24.39642334 C93.37958128 26.92824212 93.38242616 29.46010551 93.37792969 31.99194336 C93.37696021 35.8528968 93.41852083 39.71184471 93.46289062 43.57250977 C93.46809984 46.03474522 93.47078578 48.49698756 93.47070312 50.95922852 C93.48709839 52.10844788 93.50349365 53.25766724 93.52038574 54.44171143 C93.46125846 61.3525642 92.62657934 66.37972403 87.87695312 71.63110352 C85.08752296 73.0258186 82.54544748 72.93719528 79.43945312 73.13110352 C75.98246735 73.34740654 73.16648602 73.53459255 69.87695312 74.63110352 C69.86237061 75.50847168 69.84778809 76.38583984 69.83276367 77.28979492 C69.77145633 80.56659673 69.69725979 83.84259295 69.61450195 87.11889648 C69.58139022 88.53284842 69.55331596 89.94692816 69.53051758 91.36108398 C69.49671537 93.40216175 69.44439349 95.4420828 69.38867188 97.48266602 C69.36248779 98.70808105 69.33630371 99.93349609 69.30932617 101.19604492 C68.83450295 104.9683559 67.86977541 107.40720432 65.87695312 110.63110352 C62.57590707 112.83180089 61.55756588 112.88665783 57.71875 112.90576172 C56.66755981 112.91529373 55.61636963 112.92482574 54.5333252 112.93464661 C53.39890991 112.9337352 52.26449463 112.93282379 51.09570312 112.93188477 C49.93067261 112.93616989 48.76564209 112.94045502 47.56530762 112.94487 C45.10067393 112.95061624 42.63602329 112.95111141 40.17138672 112.94677734 C36.39195987 112.94361607 32.61331447 112.96707857 28.83398438 112.99243164 C26.44205828 112.99470438 24.05013008 112.99540825 21.65820312 112.99438477 C19.9565802 113.00819939 19.9565802 113.00819939 18.22058105 113.02229309 C16.64379578 113.01294991 16.64379578 113.01294991 15.03515625 113.00341797 C13.64641296 113.00436211 13.64641296 113.00436211 12.22961426 113.00532532 C9.87695312 112.63110352 9.87695312 112.63110352 8.07800293 111.32267761 C6.06300618 108.4847301 6.52366927 105.98730016 6.87695312 102.63110352 C7.82592773 100.44213867 7.82592773 100.44213867 9.87695312 98.63110352 C12.93259741 98.0202881 15.96090506 98.07412402 19.06835938 98.09204102 C19.96940903 98.08024811 20.87045868 98.0684552 21.79881287 98.05630493 C24.67920165 98.02096771 27.55886503 98.01186613 30.43945312 98.00610352 C33.32339438 97.98978702 36.20700905 97.96780877 39.09080505 97.93447876 C40.88585485 97.91477622 42.68105479 97.90552166 44.47621155 97.90756226 C49.15863102 98.09633378 49.15863102 98.09633378 52.87695312 95.63110352 C53.16638417 93.04394074 53.16638417 93.04394074 53.11523438 90.02954102 C53.13134766 88.8990332 53.14746094 87.76852539 53.1640625 86.60375977 C53.18082379 84.2288132 53.1862628 81.85375637 53.1796875 79.47875977 C53.30462757 72.36120602 53.92118958 67.02782576 58.87695312 61.63110352 C62.55911205 59.79002405 67.11887087 60.21607451 71.19921875 60.02563477 C74.84184766 60.16471065 74.84184766 60.16471065 77.87695312 58.63110352 C77.99905236 57.21992649 78.05466185 55.80289893 78.08227539 54.38671875 C78.10245728 53.47321655 78.12263916 52.55971436 78.14343262 51.61853027 C78.15990845 50.65201538 78.17638428 49.68550049 78.19335938 48.68969727 C78.2120105 47.80608521 78.23066162 46.92247314 78.24987793 46.01208496 C78.31839864 42.69769703 78.37840463 39.3831375 78.43945312 36.06860352 C78.58382813 28.66422852 78.72820312 21.25985352 78.87695312 13.63110352 C51.81695313 13.96110352 24.75695313 14.29110352 -3.12304688 14.63110352 C-3.45304687 29.81110352 -3.78304688 44.99110352 -4.12304688 60.63110352 C1.48695312 60.63110352 7.09695313 60.63110352 12.87695312 60.63110352 C18.87695312 64.63110352 18.87695312 64.63110352 19.87695312 66.63110352 C20.11493813 69.94085799 20.25963198 73.24946086 20.40039062 76.56469727 C20.92067156 79.91240658 21.4594937 80.47979746 23.87695312 82.63110352 C25.48216246 79.58998602 27.08593149 76.54811119 28.68945312 73.50610352 C29.14126953 72.65016602 29.59308594 71.79422852 30.05859375 70.91235352 C30.93898699 69.24153423 31.81682589 67.56936608 32.69189453 65.89575195 C33.68727262 63.99358319 34.69301265 62.0968417 35.70117188 60.20141602 C37.08494731 57.64749792 37.08494731 57.64749792 36.87695312 54.63110352 C35.77996094 54.61692383 34.68296875 54.60274414 33.55273438 54.58813477 C32.09826614 54.54121644 30.64384035 54.49296914 29.18945312 54.44360352 C28.46822266 54.43780273 27.74699219 54.43200195 27.00390625 54.42602539 C22.73462504 54.25057548 21.26247161 53.95677437 17.85742188 51.08032227 C17.20386719 50.27208008 16.5503125 49.46383789 15.87695312 48.63110352 C17.17415236 45.77331335 18.54063573 43.72101815 20.76611328 41.51489258 C21.34656403 40.9345929 21.92701477 40.35429321 22.52505493 39.75640869 C23.14907196 39.14271423 23.77308899 38.52901978 24.41601562 37.89672852 C25.05687103 37.258703 25.69772644 36.62067749 26.35800171 35.96331787 C28.40133134 33.93116283 30.45151295 31.90608134 32.50195312 29.88110352 C33.89043172 28.50265821 35.27845802 27.12375715 36.66601562 25.74438477 C40.0644401 22.36798458 43.46902566 18.99791064 46.87695312 15.63110352 C47.86695313 16.12610352 47.86695313 16.12610352 48.87695312 16.63110352 C48.60431641 17.25678223 48.33167969 17.88246094 48.05078125 18.52709961 C46.82241469 21.35181775 45.5996207 24.17891422 44.37695312 27.00610352 C43.94769531 27.99094727 43.5184375 28.97579102 43.07617188 29.99047852 C42.67011719 30.93149414 42.2640625 31.87250977 41.84570312 32.84204102 C41.46865234 33.71135254 41.09160156 34.58066406 40.703125 35.47631836 C39.7576196 37.55772081 39.7576196 37.55772081 39.87695312 39.63110352 C46.47695312 39.96110352 53.07695313 40.29110352 59.87695312 40.63110352 C59.87695312 48.50946209 59.87695312 48.50946209 58.18164062 51.62719727 C57.80217285 52.33932373 57.42270508 53.0514502 57.03173828 53.78515625 C56.39824463 54.91546265 56.39824463 54.91546265 55.75195312 56.06860352 C55.31544434 56.87048096 54.87893555 57.6723584 54.42919922 58.49853516 C52.93332337 61.22200195 51.40885729 63.92774323 49.87695312 66.63110352 C49.28849609 67.67395508 48.70003906 68.71680664 48.09375 69.79125977 C46.24245085 73.05780022 44.37628005 76.31522665 42.50195312 79.56860352 C41.61032471 81.12309204 41.61032471 81.12309204 40.70068359 82.70898438 C40.13236816 83.68230713 39.56405273 84.65562988 38.97851562 85.65844727 C38.47658691 86.52203857 37.9746582 87.38562988 37.45751953 88.27539062 C34.62537221 92.49648879 31.84084964 95.30739778 26.87695312 96.63110352 C20.38150111 97.45236756 15.23038335 96.49477827 9.87695312 92.63110352 C5.13678196 87.64784665 5.11059179 82.19635011 4.87695312 75.63110352 C3.95914062 75.61692383 3.04132813 75.60274414 2.09570312 75.58813477 C-5.4094097 75.29644446 -11.42938589 74.89815014 -17.12304688 69.63110352 C-18.41709331 67.04301064 -18.26425286 65.14916863 -18.28417969 62.25097656 C-18.29378723 61.12608322 -18.30339478 60.00118988 -18.31329346 58.84220886 C-18.31966827 57.0110125 -18.31966827 57.0110125 -18.32617188 55.14282227 C-18.33187195 53.89233597 -18.33757202 52.64184967 -18.34344482 51.35346985 C-18.35290596 48.70289468 -18.35979691 46.05243304 -18.36328125 43.40185547 C-18.36875839 40.01231631 -18.39276925 36.62318041 -18.4212532 33.23376751 C-18.44440893 29.99514973 -18.44633158 26.75651124 -18.45117188 23.51782227 C-18.46351868 22.30309738 -18.47586548 21.0883725 -18.48858643 19.83683777 C-18.48558533 18.70248795 -18.48258423 17.56813812 -18.47949219 16.39941406 C-18.48313782 15.40395065 -18.48678345 14.40848724 -18.49053955 13.38285828 C-17.80350831 8.23842515 -14.9666645 4.7868596 -10.91404724 1.61052132 C-7.45214589 -0.28263732 -3.86083493 -0.05382845 0 0 Z " fill="#ED1C24" transform="translate(1072.123046875,111.368896484375)"/>
<path d="M0 0 C8.91 0 17.82 0 27 0 C28.7015625 3.5578125 28.7015625 3.5578125 30.4375 7.1875 C30.97201782 8.29387817 30.97201782 8.29387817 31.51733398 9.42260742 C33.1747902 12.93231955 34.46427514 16.11410844 35 20 C35.66 20 36.32 20 37 20 C37.25652344 19.15050781 37.51304687 18.30101562 37.77734375 17.42578125 C39.07593554 13.78723492 40.70832757 10.57455819 42.5625 7.1875 C43.18253906 6.04667969 43.80257812 4.90585937 44.44140625 3.73046875 C46 1 46 1 47 0 C48.92667507 -0.08748207 50.85651861 -0.10697334 52.78515625 -0.09765625 C53.95498047 -0.09443359 55.12480469 -0.09121094 56.33007812 -0.08789062 C57.56177734 -0.07951172 58.79347656 -0.07113281 60.0625 -0.0625 C61.91584961 -0.05573242 61.91584961 -0.05573242 63.80664062 -0.04882812 C66.87114117 -0.03699608 69.93554721 -0.02051173 73 0 C72.38642918 4.08953612 71.03976858 7.21520578 69.12109375 10.8671875 C68.53279785 11.99406982 67.94450195 13.12095215 67.33837891 14.28198242 C66.70492998 15.47974877 66.07130067 16.67741974 65.4375 17.875 C64.79816058 19.09389226 64.15932709 20.31305003 63.52099609 21.5324707 C61.68942793 25.02631935 59.84611553 28.51381558 58 32 C57.28529541 33.35085693 57.28529541 33.35085693 56.55615234 34.72900391 C54.38492516 38.82722669 52.19624418 42.91498582 50 47 C41.09 47 32.18 47 23 47 C21.845 43.926875 20.69 40.85375 19.5 37.6875 C19.13455078 36.72287842 18.76910156 35.75825684 18.39257812 34.7644043 C18.10833984 34.00039307 17.82410156 33.23638184 17.53125 32.44921875 C17.23798828 31.66893311 16.94472656 30.88864746 16.64257812 30.0847168 C16 28 16 28 16 25 C15.34 25 14.68 25 14 25 C13.76539063 25.81726563 13.53078125 26.63453125 13.2890625 27.4765625 C11.73243524 31.73134368 9.63774714 35.46382987 7.375 39.375 C5.209375 43.149375 5.209375 43.149375 3 47 C-5.91 47 -14.82 47 -24 47 C-22.48286837 42.44860512 -21.01627769 38.8951718 -18.76953125 34.74609375 C-18.45602219 34.16392593 -18.14251312 33.58175812 -17.81950378 32.98194885 C-16.82161425 31.1313564 -15.81722785 29.28438699 -14.8125 27.4375 C-14.15776379 26.22614881 -13.5034637 25.01456181 -12.84960938 23.80273438 C-11.55276847 21.4008312 -10.25336605 19.00034417 -8.95166016 16.60107422 C-5.95428651 11.07464886 -2.97879173 5.53645727 0 0 Z " fill="#2E3192" transform="translate(474,475)"/>
<path d="M0 0 C8.91 0 17.82 0 27 0 C30.9375 9.4375 30.9375 9.4375 32.17553711 12.41577148 C32.4978833 13.18477783 32.82022949 13.95378418 33.15234375 14.74609375 C33.48226318 15.53685303 33.81218262 16.3276123 34.15209961 17.14233398 C34.85721491 18.97376797 34.85721491 18.97376797 36 20 C36.29769287 19.42967041 36.59538574 18.85934082 36.90209961 18.27172852 C38.2453117 15.70097638 39.59136647 13.13172348 40.9375 10.5625 C41.40607422 9.66466797 41.87464844 8.76683594 42.35742188 7.84179688 C42.80537109 6.98779297 43.25332031 6.13378906 43.71484375 5.25390625 C44.12855225 4.46314697 44.54226074 3.6723877 44.96850586 2.85766602 C46 1 46 1 47 0 C48.92667507 -0.08748207 50.85651861 -0.10697334 52.78515625 -0.09765625 C53.95498047 -0.09443359 55.12480469 -0.09121094 56.33007812 -0.08789062 C57.56177734 -0.07951172 58.79347656 -0.07113281 60.0625 -0.0625 C61.91584961 -0.05573242 61.91584961 -0.05573242 63.80664062 -0.04882812 C66.87114117 -0.03699608 69.93554721 -0.02051173 73 0 C72.38642918 4.08953612 71.03976858 7.21520578 69.12109375 10.8671875 C68.53279785 11.99406982 67.94450195 13.12095215 67.33837891 14.28198242 C66.70492998 15.47974877 66.07130067 16.67741974 65.4375 17.875 C64.79816058 19.09389226 64.15932709 20.31305003 63.52099609 21.5324707 C61.68942793 25.02631935 59.84611553 28.51381558 58 32 C57.28529541 33.35085693 57.28529541 33.35085693 56.55615234 34.72900391 C54.38492516 38.82722669 52.19624418 42.91498582 50 47 C41.09 47 32.18 47 23 47 C20.36 40.07 17.72 33.14 15 26 C11.04 32.93 7.08 39.86 3 47 C-5.91 47 -14.82 47 -24 47 C-22.48286837 42.44860512 -21.01627769 38.8951718 -18.76953125 34.74609375 C-18.45602219 34.16392593 -18.14251312 33.58175812 -17.81950378 32.98194885 C-16.82161425 31.1313564 -15.81722785 29.28438699 -14.8125 27.4375 C-14.15776379 26.22614881 -13.5034637 25.01456181 -12.84960938 23.80273438 C-11.55276847 21.4008312 -10.25336605 19.00034417 -8.95166016 16.60107422 C-5.95428651 11.07464886 -2.97879173 5.53645727 0 0 Z " fill="#2E3192" transform="translate(320,393)"/>
<path d="M0 0 C1.11020508 0.0314209 2.22041016 0.0628418 3.36425781 0.09521484 C4.56953125 0.11455078 5.77480469 0.13388672 7.01660156 0.15380859 C8.27085938 0.20408203 9.52511719 0.25435547 10.81738281 0.30615234 C12.08710937 0.33322266 13.35683594 0.36029297 14.66503906 0.38818359 C17.79987733 0.45889423 20.93384356 0.56651066 24.06738281 0.68115234 C26.70738281 6.95115234 29.34738281 13.22115234 32.06738281 19.68115234 C34.05657193 17.02890018 35.6084992 14.86525888 37.11035156 12.00927734 C37.58637817 11.11063965 37.58637817 11.11063965 38.07202148 10.19384766 C38.46236572 9.4471582 38.85270996 8.70046875 39.25488281 7.93115234 C40.51300781 5.53865234 41.77113281 3.14615234 43.06738281 0.68115234 C51.97738281 0.68115234 60.88738281 0.68115234 70.06738281 0.68115234 C68.78447028 4.52988994 67.71768267 7.6245466 65.91259766 11.12597656 C65.49231293 11.94637421 65.0720282 12.76677185 64.63900757 13.61203003 C64.18998077 14.47788727 63.74095398 15.34374451 63.27832031 16.23583984 C62.81503326 17.137388 62.35174622 18.03893616 61.87442017 18.96780396 C60.40106954 21.83266447 58.92182046 24.69443128 57.44238281 27.55615234 C56.43938721 29.50386749 55.43677872 31.45178203 54.43457031 33.39990234 C51.98403482 38.16302928 49.52553946 42.92192333 47.06738281 47.68115234 C38.15738281 47.68115234 29.24738281 47.68115234 20.06738281 47.68115234 C16.69238281 38.86865234 16.69238281 38.86865234 15.64013672 36.10375977 C15.22127197 35.01865112 15.22127197 35.01865112 14.79394531 33.91162109 C14.51115723 33.17322998 14.22836914 32.43483887 13.93701172 31.67407227 C13.02807086 29.43191386 13.02807086 29.43191386 11.06738281 26.68115234 C10.76968994 27.2817749 10.47199707 27.88239746 10.1652832 28.5012207 C8.82222073 31.20806463 7.47609433 33.91337327 6.12988281 36.61865234 C5.66130859 37.56417969 5.19273438 38.50970703 4.70996094 39.48388672 C4.26201172 40.38300781 3.8140625 41.28212891 3.35253906 42.20849609 C2.93883057 43.0411499 2.52512207 43.87380371 2.09887695 44.73168945 C1.06738281 46.68115234 1.06738281 46.68115234 0.06738281 47.68115234 C-1.93226701 47.76873237 -3.93497828 47.78811811 -5.93652344 47.77880859 C-7.15146484 47.77558594 -8.36640625 47.77236328 -9.61816406 47.76904297 C-10.89755859 47.76066406 -12.17695312 47.75228516 -13.49511719 47.74365234 C-14.77837891 47.73914063 -16.06164062 47.73462891 -17.38378906 47.72998047 C-20.56677741 47.7181478 -23.74967481 47.70166303 -26.93261719 47.68115234 C-26.31390565 44.86519823 -25.45274051 42.4886451 -24.13842773 39.92578125 C-23.77101974 39.2046817 -23.40361176 38.48358215 -23.02507019 37.7406311 C-22.62717789 36.97076874 -22.22928558 36.20090637 -21.81933594 35.40771484 C-21.40851273 34.60635101 -20.99768951 33.80498718 -20.57441711 32.9793396 C-19.70471952 31.28547455 -18.83293874 29.5926777 -17.95922852 27.90087891 C-16.63004681 25.32539247 -15.30918984 22.74576407 -13.98925781 20.16552734 C-13.1414484 18.51683372 -12.29315661 16.86838805 -11.44433594 15.22021484 C-10.85660652 14.07149399 -10.85660652 14.07149399 -10.25700378 12.89956665 C-9.17508938 10.81131268 -8.06197423 8.74405244 -6.93261719 6.68115234 C-6.30943604 5.52711914 -5.68625488 4.37308594 -5.04418945 3.18408203 C-2.93261719 0.68115234 -2.93261719 0.68115234 0 0 Z " fill="#2E3192" transform="translate(96.9326171875,307.31884765625)"/>
<path d="M0 0 C8.91 0 17.82 0 27 0 C28.11375 2.206875 29.2275 4.41375 30.375 6.6875 C30.72224121 7.37287842 31.06948242 8.05825684 31.42724609 8.7644043 C33.11479925 12.12441708 34.66866505 15.48339304 36 19 C36.89786736 17.52206712 37.79315283 16.04256572 38.6875 14.5625 C39.18636719 13.73878906 39.68523437 12.91507812 40.19921875 12.06640625 C42.53724011 8.08517681 44.75779486 4.03596925 47 0 C55.91 0 64.82 0 74 0 C68.73842921 11.33959222 63.25605378 22.5300432 57.5 33.625 C57.18536804 34.23284332 56.87073608 34.84068665 56.54656982 35.46694946 C51.18351003 45.81648997 51.18351003 45.81648997 50 47 C48.07332493 47.08748207 46.14348139 47.10697334 44.21484375 47.09765625 C42.46010742 47.09282227 42.46010742 47.09282227 40.66992188 47.08789062 C39.43822266 47.07951172 38.20652344 47.07113281 36.9375 47.0625 C35.08415039 47.05573242 35.08415039 47.05573242 33.19335938 47.04882812 C30.12885883 47.03699608 27.06445279 47.02051173 24 47 C23.24902565 45.20874151 22.49928538 43.41696564 21.75 41.625 C21.33234375 40.62726562 20.9146875 39.62953125 20.484375 38.6015625 C18.62158312 34.08184115 16.81556013 29.53890031 15 25 C11.37 32.26 7.74 39.52 4 47 C-5.24 47 -14.48 47 -24 47 C-16.19723141 31.23190514 -8.08665625 15.62373392 0 0 Z " fill="#2E3192" transform="translate(123,475)"/>
<path d="M0 0 C2.35128104 2.47503267 2.76879735 3.32080386 3.375 6.5 C-0.35150272 7.20249703 -4.08149815 7.8843395 -7.8125 8.5625 C-8.86759766 8.76166016 -9.92269531 8.96082031 -11.00976562 9.16601562 C-12.03134766 9.34970703 -13.05292969 9.53339844 -14.10546875 9.72265625 C-15.04285889 9.89547119 -15.98024902 10.06828613 -16.94604492 10.24633789 C-20.54691719 10.58729354 -23.39225251 10.11637374 -26.625 8.5 C-34.05203286 7.83687207 -40.75900068 9.31978224 -46.62890625 14.1484375 C-49.25360908 16.93756487 -50.625 18.46831341 -50.625 22.375 C-49.81641401 24.66215642 -49.81641401 24.66215642 -47.625 25.5 C-43.95170036 25.63357453 -41.12647041 25.6671568 -37.625 24.5 C-38.945 24.17 -40.265 23.84 -41.625 23.5 C-40.28231345 19.16208962 -38.69287321 15.63574643 -36.625 11.5 C-23.095 11.5 -9.565 11.5 4.375 11.5 C3.06280551 19.37316695 -0.15013163 23.77578845 -6.375 28.6875 C-21.57376802 39.26928377 -40.58571543 43.60514304 -58.91796875 41.0390625 C-66.93980643 39.31065641 -72.78803079 36.36859438 -77.6875 29.6875 C-79.19949781 24.54670745 -79.05562914 20.12680735 -76.45703125 15.35546875 C-74.96315637 13.26083989 -73.37637072 11.38362526 -71.625 9.5 C-71.15449219 8.97664063 -70.68398438 8.45328125 -70.19921875 7.9140625 C-54.0149595 -7.89381863 -18.51023804 -13.87194174 0 0 Z " fill="#2E3192" transform="translate(544.625,399.5)"/>
<path d="M0 0 C4.07729657 3.46570209 6.15556414 5.70133177 7.4375 11 C7.89405814 17.25133454 5.21263158 21.48420368 1.4375 26.1875 C-2.61039194 30.59331081 -7.22007255 33.39118903 -12.5 36.125 C-13.22058594 36.50527344 -13.94117188 36.88554688 -14.68359375 37.27734375 C-28.62672375 44.05703082 -48.127302 46.44939549 -63 41.4375 C-67.98317009 39.16587832 -72.07106483 36.59316075 -74.875 31.75 C-76.26656513 25.90542644 -75.83784684 21.36960955 -72.93359375 16.1640625 C-65.03131705 4.92431199 -50.62722886 -1.30877481 -37.5 -3.875 C-24.85207582 -5.95853275 -11.54573748 -6.18521651 0 0 Z M-46.18359375 17.61328125 C-48.02556443 19.72854135 -49.05949387 21.33512783 -49.5 24.125 C-48.40899735 26.33562739 -48.40899735 26.33562739 -46.5 28.125 C-39.74985436 29.75357091 -33.56984105 27.94183715 -27.671875 24.6171875 C-23.71686999 21.89989989 -20.99931441 19.27205198 -19.875 14.4375 C-20.31472401 11.91059863 -20.31472401 11.91059863 -22.75 10.3125 C-30.64646292 6.90266374 -40.39090288 12.07183963 -46.18359375 17.61328125 Z " fill="#2E3192" transform="translate(446.5,480.875)"/>
<path d="M0 0 C1.61374976 -0.01255517 3.2279864 0.00842124 4.84106445 0.05664062 C5.7019014 0.06038696 6.56273834 0.0641333 7.44966125 0.06799316 C9.27128587 0.08142723 11.0928531 0.10924425 12.9140625 0.15039062 C15.67739606 0.21228698 18.43843666 0.23229616 21.20239258 0.24414062 C22.9778105 0.26250125 24.75320556 0.28325931 26.52856445 0.30664062 C27.75249153 0.31939026 27.75249153 0.31939026 29.00114441 0.33239746 C37.21595029 0.53290596 44.47680185 1.48085554 51.0168457 6.71289062 C52.44988635 9.57897191 52.32328726 11.52589845 52.0168457 14.71289062 C48.2471561 21.69379729 43.24817367 25.03462101 36.0168457 27.71289062 C35.0268457 27.71289062 34.0368457 27.71289062 33.0168457 27.71289062 C33.28948242 28.21216064 33.56211914 28.71143066 33.84301758 29.22583008 C35.0741142 31.48889081 36.29555783 33.75702261 37.5168457 36.02539062 C38.16073242 37.20391602 38.16073242 37.20391602 38.81762695 38.40625 C39.22368164 39.16357422 39.62973633 39.92089844 40.0480957 40.70117188 C40.42514648 41.39766846 40.80219727 42.09416504 41.19067383 42.81176758 C42.0168457 44.71289062 42.0168457 44.71289062 42.0168457 47.71289062 C32.1168457 47.71289062 22.2168457 47.71289062 12.0168457 47.71289062 C9.5168457 40.21289062 9.5168457 40.21289062 7.0168457 32.71289062 C4.3768457 37.66289062 1.7368457 42.61289062 -0.9831543 47.71289062 C-9.8931543 47.71289062 -18.8031543 47.71289062 -27.9831543 47.71289062 C-25.73267351 40.96144827 -25.73267351 40.96144827 -24.16723633 37.9140625 C-23.64626877 36.89270203 -23.64626877 36.89270203 -23.11477661 35.85070801 C-22.74391937 35.13491577 -22.37306213 34.41912354 -21.9909668 33.68164062 C-21.60375458 32.92749878 -21.21654236 32.17335693 -20.81759644 31.3963623 C-20.00100864 29.80857666 -19.1822936 28.22188344 -18.36157227 26.63623047 C-17.11358759 24.22339528 -15.87408167 21.80634383 -14.63549805 19.38867188 C-13.83782511 17.84023498 -13.03966408 16.2920494 -12.2409668 14.74414062 C-11.87415802 14.02834839 -11.50734924 13.31255615 -11.12942505 12.57507324 C-10.43113521 11.230478 -9.71899287 9.8929589 -8.9912262 8.56408691 C-8.03964966 6.8166372 -7.15184881 5.03489168 -6.26855469 3.25195312 C-3.79332496 0.50199167 -3.4578495 0.31216492 0 0 Z M17.0168457 11.71289062 C14.8154591 15.51716555 14.8154591 15.51716555 14.0168457 19.71289062 C15.47632275 19.65282984 16.93463842 19.56402173 18.3918457 19.46289062 C19.20395508 19.41648437 20.01606445 19.37007813 20.8527832 19.32226562 C23.20523497 18.92068143 23.20523497 18.92068143 24.3059082 16.66601562 C24.54051758 16.02148438 24.77512695 15.37695312 25.0168457 14.71289062 C22.4513863 12.14743122 20.53997903 12.17242975 17.0168457 11.71289062 Z " fill="#2E3192" transform="translate(355.983154296875,307.287109375)"/>
<path d="M0 0 C2.70556641 -0.34057617 2.70556641 -0.34057617 6.1015625 -0.29296875 C7.91914062 -0.2784668 7.91914062 -0.2784668 9.7734375 -0.26367188 C11.04445313 -0.23853516 12.31546875 -0.21339844 13.625 -0.1875 C14.90375 -0.17396484 16.1825 -0.16042969 17.5 -0.14648438 C20.66708282 -0.11103196 23.83333541 -0.06161441 27 0 C25.77773657 3.92939293 24.3591435 7.44306021 22.36328125 11.0390625 C21.62174805 12.40417969 21.62174805 12.40417969 20.86523438 13.796875 C19.82406329 15.69324699 18.77711339 17.58645688 17.72460938 19.4765625 C17.23412109 20.3840625 16.74363281 21.2915625 16.23828125 22.2265625 C15.78493408 23.04721191 15.33158691 23.86786133 14.86450195 24.71337891 C13.88244926 27.31092354 14.03765159 28.44083617 15 31 C19.88832775 30.6976274 19.88832775 30.6976274 24.01855469 28.33300781 C26.27576646 25.67530504 27.82152545 23.00378526 29.453125 19.921875 C30.071875 18.76171875 30.690625 17.6015625 31.328125 16.40625 C31.96890795 15.18758304 32.60953097 13.96883197 33.25 12.75 C33.90558502 11.5152717 34.56182855 10.28089279 35.21875 9.046875 C36.81897742 6.03468221 38.41034855 3.01778751 40 0 C48.91 0 57.82 0 67 0 C64.80622238 6.58133285 61.88256873 12.36518435 58.6875 18.5 C58.11837891 19.61503906 57.54925781 20.73007812 56.96289062 21.87890625 C50.96301641 33.43779136 44.74852992 40.67675643 32 44.8125 C18.60093306 48.33857025 2.05058983 48.95671441 -11 44 C-13.91332928 42.11490458 -15.47091534 41.05816932 -17 38 C-17.50399884 32.83237549 -16.19064163 29.71778899 -13.7890625 25.17578125 C-13.46086517 24.54770065 -13.13266785 23.91962006 -12.79452515 23.27250671 C-11.74939421 21.27959717 -10.68737572 19.29626011 -9.625 17.3125 C-8.91818196 15.96867111 -8.21244159 14.62427482 -7.5078125 13.27929688 C-2.46632965 3.69949448 -2.46632965 3.69949448 0 0 Z " fill="#2E3192" transform="translate(18,307)"/>
<path d="M0 0 C1.36059641 0.03517386 2.7212808 0.0671022 4.08203125 0.09570312 C7.39029044 0.17782303 10.69399291 0.29263933 14 0.4375 C14.2875796 5.70265419 14.57231187 10.96795211 14.85449219 16.23339844 C14.95072891 18.02185141 15.04772177 19.81026388 15.14550781 21.59863281 C15.28653172 24.18023369 15.42476849 26.76197162 15.5625 29.34375 C15.60624756 30.13366333 15.64999512 30.92357666 15.69506836 31.73742676 C15.73510986 32.49761108 15.77515137 33.25779541 15.81640625 34.04101562 C15.85193604 34.69831665 15.88746582 35.35561768 15.92407227 36.03283691 C16.03353043 39.49942264 16 42.96918663 16 46.4375 C6.76 46.4375 -2.48 46.4375 -12 46.4375 C-12 44.7875 -12 43.1375 -12 41.4375 C-15.25129636 41.48944909 -18.49995065 41.584537 -21.75 41.6875 C-22.67039063 41.70167969 -23.59078125 41.71585938 -24.5390625 41.73046875 C-25.87324219 41.77880859 -25.87324219 41.77880859 -27.234375 41.828125 C-28.05131836 41.84907227 -28.86826172 41.87001953 -29.70996094 41.89160156 C-32.17973135 42.25953035 -32.17973135 42.25953035 -33.90429688 44.45117188 C-36.74864558 47.14707367 -38.43259119 46.90103602 -42.296875 46.828125 C-43.50214844 46.81523438 -44.70742187 46.80234375 -45.94921875 46.7890625 C-47.20347656 46.75554688 -48.45773438 46.72203125 -49.75 46.6875 C-51.01972656 46.66945313 -52.28945312 46.65140625 -53.59765625 46.6328125 C-56.73253077 46.58567153 -59.8658856 46.51987664 -63 46.4375 C-63 45.7775 -63 45.1175 -63 44.4375 C-61.53344727 42.97680664 -61.53344727 42.97680664 -59.50390625 41.28515625 C-55.18390373 37.61063861 -51.0521013 33.77668532 -46.9375 29.875 C-45.44812797 28.46852621 -43.95854023 27.06228081 -42.46875 25.65625 C-41.72496094 24.95371094 -40.98117188 24.25117188 -40.21484375 23.52734375 C-36.79650185 20.30192415 -33.36946456 17.08591534 -29.9375 13.875 C-29.35540771 13.32835693 -28.77331543 12.78171387 -28.17358398 12.21850586 C-27.03780155 11.15672211 -25.89117836 10.10641314 -24.73388672 9.06811523 C-22.9479426 7.44386631 -22.9479426 7.44386631 -21.31689453 5.49633789 C-15.13448079 -1.09818126 -8.59278235 -0.38293007 0 0 Z M-10 17.4375 C-11.17706304 18.67946376 -12.31683148 19.95692094 -13.4375 21.25 C-14.05496094 21.95769531 -14.67242187 22.66539062 -15.30859375 23.39453125 C-17.13801792 25.53256969 -17.13801792 25.53256969 -19 28.4375 C-16.03 28.4375 -13.06 28.4375 -10 28.4375 C-9.67 24.8075 -9.34 21.1775 -9 17.4375 C-9.33 17.4375 -9.66 17.4375 -10 17.4375 Z " fill="#2E3192" transform="translate(241,475.5625)"/>
<path d="M0 0 C0.89642939 3.11950135 1.18707677 6.02222846 1.31640625 9.26171875 C1.3793689 10.80581421 1.3793689 10.80581421 1.44360352 12.38110352 C1.48283936 13.47221436 1.5220752 14.5633252 1.5625 15.6875 C1.6049585 16.79988037 1.64741699 17.91226074 1.69116211 19.05834961 C2.0131918 28.0473191 2.08102558 37.0061601 2 46 C-7.24 46 -16.48 46 -26 46 C-25.67 44.35 -25.34 42.7 -25 41 C-28.43873816 41.05179764 -31.87494908 41.14685105 -35.3125 41.25 C-36.77719727 41.27126953 -36.77719727 41.27126953 -38.27148438 41.29296875 C-39.20927734 41.32519531 -40.14707031 41.35742188 -41.11328125 41.390625 C-41.97735596 41.41157227 -42.84143066 41.43251953 -43.73168945 41.45410156 C-46.17537772 41.7767902 -46.17537772 41.7767902 -47.40429688 44.01367188 C-49 46 -49 46 -51.91088867 46.45410156 C-53.0682251 46.4331543 -54.22556152 46.41220703 -55.41796875 46.390625 C-56.67158203 46.37773438 -57.92519531 46.36484375 -59.21679688 46.3515625 C-60.52712891 46.31804688 -61.83746094 46.28453125 -63.1875 46.25 C-64.5227601 46.22993307 -65.85804883 46.21168262 -67.19335938 46.1953125 C-70.46296146 46.14809803 -73.73112192 46.08225184 -77 46 C-73.29827767 41.52197829 -69.45412688 37.3841278 -65.125 33.5 C-63.98113609 32.45903039 -62.83793822 31.41732857 -61.6953125 30.375 C-61.0962207 29.82972656 -60.49712891 29.28445313 -59.87988281 28.72265625 C-57.24523484 26.30836065 -54.63959114 23.86409397 -52.03979492 21.41235352 C-50.67420036 20.13207797 -49.29921408 18.86175055 -47.9152832 17.60131836 C-44.72180217 14.67657877 -41.76131591 11.81168284 -39.11328125 8.37890625 C-29.17724338 -3.78938042 -14.34472982 -1.1123262 0 0 Z M-26.06640625 19.93359375 C-26.89011719 20.75988281 -27.71382812 21.58617187 -28.5625 22.4375 C-29.38878906 23.26121094 -30.21507812 24.08492188 -31.06640625 24.93359375 C-33.11387535 26.65003279 -33.11387535 26.65003279 -33 28 C-31.52093108 28.02689216 -30.04172517 28.04634621 -28.5625 28.0625 C-27.32693359 28.07990234 -27.32693359 28.07990234 -26.06640625 28.09765625 C-24.00836062 28.23267348 -24.00836062 28.23267348 -23 27 C-22.92820036 25.48071962 -22.91607993 23.95832518 -22.9375 22.4375 C-22.94652344 21.61121094 -22.95554687 20.78492188 -22.96484375 19.93359375 C-22.97644531 19.29550781 -22.98804688 18.65742188 -23 18 C-24.34996721 17.88612465 -24.34996721 17.88612465 -26.06640625 19.93359375 Z " fill="#2E3192" transform="translate(604,476)"/>
<path d="M0 0 C1.35601368 0.04021181 2.71214318 0.07669903 4.06835938 0.109375 C7.36107427 0.20311777 10.64775724 0.3342217 13.9375 0.5 C14.71310951 3.99320011 15.11141255 7.32091454 15.25390625 10.89453125 C15.3168689 12.4415271 15.3168689 12.4415271 15.38110352 14.01977539 C15.42033936 15.10637451 15.4595752 16.19297363 15.5 17.3125 C15.5424585 18.42294678 15.58491699 19.53339355 15.62866211 20.67749023 C15.93894768 29.29368966 16.02119718 37.87919039 15.9375 46.5 C6.6975 46.5 -2.5425 46.5 -12.0625 46.5 C-11.7325 44.52 -11.4025 42.54 -11.0625 40.5 C-14.29321384 40.52290013 -17.52043134 40.60033517 -20.75 40.6875 C-21.66201172 40.69330078 -22.57402344 40.69910156 -23.51367188 40.70507812 C-26.12011672 40.79037996 -28.51728078 40.92441157 -31.0625 41.5 C-31.8153125 42.3353125 -32.568125 43.170625 -33.34375 44.03125 C-37.99350051 48.25343725 -43.85641021 47.01488403 -49.875 46.8125 C-51.14021484 46.78994141 -52.40542969 46.76738281 -53.70898438 46.74414062 C-56.82802619 46.68529078 -59.94465902 46.6031137 -63.0625 46.5 C-61.95529457 43.17838372 -61.13608333 42.47194761 -58.51171875 40.29296875 C-54.16202841 36.60158899 -50.01269702 32.7385009 -45.875 28.8125 C-40.62493598 23.85231681 -35.36818732 18.90070983 -30.0625 14 C-29.11375 13.1234375 -28.165 12.246875 -27.1875 11.34375 C-26.44681274 10.69116211 -26.44681274 10.69116211 -25.69116211 10.02539062 C-23.96737178 8.46075301 -23.96737178 8.46075301 -22.21704102 6.39648438 C-15.50665468 -0.70226175 -9.39222669 -0.48141527 0 0 Z M-10.0625 17.5 C-11.23956304 18.74196376 -12.37933148 20.01942094 -13.5 21.3125 C-14.11746094 22.02019531 -14.73492187 22.72789062 -15.37109375 23.45703125 C-17.20051792 25.59506969 -17.20051792 25.59506969 -19.0625 28.5 C-16.0925 28.5 -13.1225 28.5 -10.0625 28.5 C-8.85977181 26.09454362 -8.96178528 24.55003047 -9 21.875 C-9.00902344 21.05773437 -9.01804687 20.24046875 -9.02734375 19.3984375 C-9.03894531 18.77195312 -9.05054688 18.14546875 -9.0625 17.5 C-9.3925 17.5 -9.7225 17.5 -10.0625 17.5 Z " fill="#2E3192" transform="translate(437.0625,393.5)"/>
<path d="M0 0 C0.99 22.77 0.99 22.77 2 46 C-7.24 46 -16.48 46 -26 46 C-26 44.02 -26 42.04 -26 40 C-29.25154712 40.02284145 -32.49959514 40.10019574 -35.75 40.1875 C-36.67039062 40.19330078 -37.59078125 40.19910156 -38.5390625 40.20507812 C-39.42851563 40.23408203 -40.31796875 40.26308594 -41.234375 40.29296875 C-42.05131836 40.3086792 -42.86826172 40.32438965 -43.70996094 40.34057617 C-46.26522837 40.82884594 -46.26522837 40.82884594 -47.90429688 43.51367188 C-50 46 -50 46 -52.93261719 46.56762695 C-54.04282227 46.54144287 -55.15302734 46.51525879 -56.296875 46.48828125 C-57.50214844 46.47216797 -58.70742188 46.45605469 -59.94921875 46.43945312 C-61.20347656 46.39755859 -62.45773437 46.35566406 -63.75 46.3125 C-65.65458984 46.27866211 -65.65458984 46.27866211 -67.59765625 46.24414062 C-70.73295773 46.18520639 -73.86588595 46.10297079 -77 46 C-75.65443833 42.96867649 -74.19654869 40.99073698 -71.76171875 38.75 C-71.11332031 38.14800781 -70.46492187 37.54601562 -69.796875 36.92578125 C-69.10078125 36.29027344 -68.4046875 35.65476562 -67.6875 35 C-66.96691406 34.33355469 -66.24632812 33.66710937 -65.50390625 32.98046875 C-63.34076356 30.98166376 -61.17094188 28.99032684 -59 27 C-57.34663848 25.4759287 -55.69463528 23.95049776 -54.04638672 22.42089844 C-53.00682258 21.46569425 -51.95740564 20.52111373 -50.89892578 19.58691406 C-47.86112311 16.87749776 -45.23048881 14.10811668 -42.69140625 10.921875 C-30.36676719 -3.68139708 -18.38239619 -1.23096403 0 0 Z M-28 20.8125 C-28.721875 21.52019531 -29.44375 22.22789062 -30.1875 22.95703125 C-32.20583469 24.96242788 -32.20583469 24.96242788 -33 28 C-30.03 28 -27.06 28 -24 28 C-23.67 24.37 -23.34 20.74 -23 17 C-25.02989371 17 -26.66699881 19.49140061 -28 20.8125 Z " fill="#2E3192" transform="translate(615,394)"/>
<path d="M0 0 C9.24 0 18.48 0 28 0 C28 7.92 28 15.84 28 24 C30.31 21.669375 32.62 19.33875 35 16.9375 C39.72469385 12.19192071 44.45311587 7.51294228 49.58203125 3.19921875 C51.14107951 1.91444826 51.14107951 1.91444826 53 0 C55.70556641 -0.22705078 55.70556641 -0.22705078 59.1015625 -0.1953125 C60.31328125 -0.18886719 61.525 -0.18242187 62.7734375 -0.17578125 C64.04445313 -0.15902344 65.31546875 -0.14226562 66.625 -0.125 C67.90375 -0.11597656 69.1825 -0.10695313 70.5 -0.09765625 C73.66685167 -0.07402303 76.83333424 -0.04107629 80 0 C78.61365138 3.21557681 77.0746492 5.04597425 74.38671875 7.26953125 C70.0551066 10.93729479 65.92911782 14.78149983 61.8125 18.6875 C56.56243598 23.64768319 51.30568732 28.59929017 46 33.5 C45.05125 34.3765625 44.1025 35.253125 43.125 36.15625 C42.63249756 36.59130859 42.13999512 37.02636719 41.63256836 37.47460938 C39.90457697 39.04344722 39.90457697 39.04344722 38.11938477 41.10351562 C33.70792585 45.70996459 30.67070776 47.52083941 24.21484375 47.78125 C21.7878219 47.72863164 19.36139013 47.63401625 16.9375 47.5 C15.69033203 47.46390625 14.44316406 47.4278125 13.15820312 47.390625 C10.10221818 47.29695496 7.0527704 47.16592878 4 47 C3.42729928 41.11039757 2.85772219 35.22050449 2.29101562 29.33032227 C2.09786048 27.32730992 1.90385764 25.32437912 1.70898438 23.3215332 C1.42874901 20.43982721 1.15158076 17.55784002 0.875 14.67578125 C0.78750488 13.78288895 0.70000977 12.88999664 0.60986328 11.970047 C0.52978027 11.12955307 0.44969727 10.28905914 0.3671875 9.4230957 C0.29612793 8.68807327 0.22506836 7.95305084 0.15185547 7.195755 C-0.01366901 4.80235285 0 2.39911906 0 0 Z " fill="#2E3192" transform="translate(210,308)"/>
<path d="M0 0 C16.5 0 33 0 50 0 C45.9107867 10.22303325 45.9107867 10.22303325 43 13 C39.22425917 14.12383024 35.60409574 14.07517458 31.6875 14 C30.66076172 14.01160156 29.63402344 14.02320313 28.57617188 14.03515625 C26.048755 14.0586671 23.526955 14.04578854 21 14 C20.67 14.66 20.34 15.32 20 16 C26.27 16.33 32.54 16.66 39 17 C34.94274917 27.14312707 34.94274917 27.14312707 32 30 C28.51646205 30.97888237 25.27094787 30.76337709 21.6875 30.5 C20.75615234 30.46390625 19.82480469 30.4278125 18.86523438 30.390625 C16.57258193 30.29656746 14.28842909 30.16539029 12 30 C11.67 31.32 11.34 32.64 11 34 C18.59 34 26.18 34 34 34 C32.68 36.64 31.36 39.28 30 42 C29.65864014 42.9799292 29.31728027 43.9598584 28.96557617 44.96948242 C26.48887658 47.52801062 25.47502842 47.37715886 21.9777832 47.56762695 C19.83528611 47.56683434 17.69268921 47.53852764 15.55078125 47.48828125 C13.85915108 47.47766914 13.85915108 47.47766914 12.13334656 47.46684265 C8.52572741 47.43881852 4.91965129 47.37606108 1.3125 47.3125 C-1.13083699 47.28742769 -3.57419826 47.26461267 -6.01757812 47.24414062 C-12.01224663 47.18896549 -18.0060131 47.10525816 -24 47 C-18.59184678 36.11818431 -13.08680688 25.29108515 -7.5 14.5 C-5.025 9.715 -2.55 4.93 0 0 Z " fill="#2E3192" transform="translate(261,393)"/>
<path d="M0 0 C0.86825912 0.00222061 1.73651825 0.00444122 2.63108826 0.00672913 C3.61202957 0.00680466 4.59297089 0.00688019 5.6036377 0.00695801 C6.6702916 0.01211929 7.7369455 0.01728058 8.83592224 0.02259827 C10.46520912 0.02472069 10.46520912 0.02472069 12.12741089 0.02688599 C15.61230674 0.03250403 19.09713941 0.04505959 22.58201599 0.05775452 C24.93813486 0.06276719 27.29425473 0.0673305 29.65037537 0.07142639 C35.44011063 0.08247933 41.2298088 0.09923501 47.01951599 0.12025452 C46.361637 1.79040944 45.69324197 3.45642895 45.01951599 5.12025452 C44.72536804 5.84728577 44.43122009 6.57431702 44.12815857 7.32337952 C42.96092406 9.65063139 41.91005975 11.31662626 40.01951599 13.12025452 C36.24377516 14.24408476 32.62361173 14.1954291 28.70701599 14.12025452 C27.68027771 14.13185608 26.65353943 14.14345764 25.59568787 14.15541077 C23.06827099 14.17892162 20.54647099 14.16604306 18.01951599 14.12025452 C17.68951599 14.78025452 17.35951599 15.44025452 17.01951599 16.12025452 C23.28951599 16.45025452 29.55951599 16.78025452 36.01951599 17.12025452 C31.96226516 27.26338158 31.96226516 27.26338158 29.01951599 30.12025452 C25.53597805 31.09913689 22.29046386 30.8836316 18.70701599 30.62025452 C17.77566833 30.58416077 16.84432068 30.54806702 15.88475037 30.51087952 C13.59209792 30.41682198 11.30794508 30.2856448 9.01951599 30.12025452 C8.68951599 31.44025452 8.35951599 32.76025452 8.01951599 34.12025452 C15.60951599 34.12025452 23.19951599 34.12025452 31.01951599 34.12025452 C26.92097813 44.36659918 26.92097813 44.36659918 24.01951599 47.12025452 C20.20519449 48.23497602 16.53929464 48.05406182 12.59373474 47.90150452 C11.49100723 47.89018494 10.38827972 47.87886536 9.25213623 47.86720276 C5.73531738 47.82247255 2.22259897 47.72210673 -1.29298401 47.62025452 C-3.67899277 47.58012361 -6.06506554 47.54362218 -8.45118713 47.51087952 C-14.29568148 47.42274877 -20.13778988 47.28894411 -25.98048401 47.12025452 C-25.30928543 43.47462269 -24.42544097 40.72969114 -22.60939026 37.48744202 C-22.12188293 36.60725403 -21.63437561 35.72706604 -21.13209534 34.82020569 C-20.34548523 33.42185486 -20.34548523 33.42185486 -19.54298401 31.99525452 C-18.45315304 30.0311256 -17.36463644 28.06626689 -16.27735901 26.10072327 C-15.45268127 24.61258118 -15.45268127 24.61258118 -14.61134338 23.09437561 C-11.66522576 17.72168027 -8.83950527 12.2860866 -6.0158844 6.84828186 C-2.52438947 0.15328033 -2.52438947 0.15328033 0 0 Z " fill="#2E3192" transform="translate(294.98048400878906,307.87974548339844)"/>
<path d="M0 0 C0.88333008 -0.00064453 1.76666016 -0.00128906 2.67675781 -0.00195312 C9.78089765 0.05494206 16.52827245 0.76262138 23.5 2.1875 C21.13482491 7.82753291 16.54821022 11.89389598 11.5 15.1875 C9.08901326 15.3429043 7.73514772 14.87366626 5.51953125 13.953125 C1.99677666 12.61761262 -1.78273765 12.85587701 -5.5 13.1875 C-6.16 13.5175 -6.82 13.8475 -7.5 14.1875 C-5.82742934 15.86007066 -3.6271173 15.71703476 -1.38085938 16.08691406 C10.84277392 18.15881413 10.84277392 18.15881413 14.5 23.1875 C14.95499144 28.01040931 13.39254038 30.69700129 10.4375 34.3125 C2.32963299 42.83235212 -7.84666718 46.46735022 -19.5 47.1875 C-20.25023437 47.24035156 -21.00046875 47.29320312 -21.7734375 47.34765625 C-28.1414056 47.57298435 -34.28354926 46.76918056 -40.5625 45.8125 C-41.40852783 45.68649414 -42.25455566 45.56048828 -43.1262207 45.43066406 C-44.3186438 45.23682129 -44.3186438 45.23682129 -45.53515625 45.0390625 C-46.2506665 44.92385254 -46.96617676 44.80864258 -47.70336914 44.68994141 C-49.5 44.1875 -49.5 44.1875 -51.5 42.1875 C-49.92301238 40.55634105 -48.33815634 38.93278667 -46.75 37.3125 C-45.86828125 36.40757812 -44.9865625 35.50265625 -44.078125 34.5703125 C-40.25795796 31.03955205 -40.25795796 31.03955205 -37.5 30.1875 C-35.5625 30.6484375 -35.5625 30.6484375 -33.5 31.5625 C-27.85787958 33.70066583 -22.45639259 33.45961946 -16.5 33.1875 C-16.5 32.1975 -16.5 31.2075 -16.5 30.1875 C-17.1290625 30.15011719 -17.758125 30.11273438 -18.40625 30.07421875 C-24.73977095 29.58775856 -31.10378219 28.930599 -36.2265625 24.79296875 C-37.5 23.1875 -37.5 23.1875 -37.4375 19.875 C-35.63374846 12.78024396 -31.9549515 9.29228414 -25.94140625 5.5078125 C-22.27237703 3.5236015 -18.53547134 2.21109583 -14.5 1.1875 C-13.78328125 1.001875 -13.0665625 0.81625 -12.328125 0.625 C-8.21712925 -0.01095514 -4.15425812 -0.00311297 0 0 Z " fill="#2E3192" transform="translate(452.5,306.8125)"/>
<path d="M0 0 C-1.13271712 3.39815137 -2.1909314 4.28644916 -4.875 6.5625 C-5.57367188 7.16191406 -6.27234375 7.76132812 -6.9921875 8.37890625 C-11.5300797 12.04276863 -11.5300797 12.04276863 -15.43359375 11.6875 C-17.4480878 11.35941954 -19.45462449 10.99689546 -21.46289062 10.6328125 C-25.29516865 10.00992489 -27.73408009 9.72805571 -31 12 C-30.07058594 12.17015625 -29.14117187 12.3403125 -28.18359375 12.515625 C-15.10970589 15.0785978 -15.10970589 15.0785978 -10 19 C-8.875 20.8125 -8.875 20.8125 -9 23 C-11.47575936 30.16667184 -14.97016016 35.01783933 -21.51171875 38.796875 C-38.33346496 46.93046658 -57.3168488 45.20193692 -75 41 C-73.56652501 37.61042892 -71.81218308 35.7219322 -69 33.375 C-66.92339664 31.6266832 -64.92037235 29.92037235 -63 28 C-60.94140625 28.20703125 -60.94140625 28.20703125 -58.5625 28.8125 C-57.78003906 29.00457031 -56.99757813 29.19664062 -56.19140625 29.39453125 C-54.44549076 29.87691432 -52.71837798 30.42720734 -51 31 C-49.04413253 31.19459037 -49.04413253 31.19459037 -47 31.1875 C-45.9790625 31.20876953 -45.9790625 31.20876953 -44.9375 31.23046875 C-42.67385868 31.10940411 -42.67385868 31.10940411 -40 29 C-41.89211428 27.10788572 -45.15116324 27.16190364 -47.6875 26.6875 C-57.49507116 24.60801498 -57.49507116 24.60801498 -61 21 C-61.82860171 17.18843213 -61.23195063 15.44534521 -59.4375 12 C-51.73255199 2.51698706 -43.12037634 -1.13641044 -31.11328125 -2.6875 C-21.1228861 -3.69030002 -9.58054888 -3.19351629 0 0 Z " fill="#2E3192" transform="translate(336,479)"/>
<path d="M0 0 C2.33865116 0.00157615 4.67769049 0.05769014 7.01416016 0.15869141 C8.24864899 0.17284088 9.48313782 0.18699036 10.7550354 0.2015686 C14.69025264 0.25746171 18.619733 0.38290207 22.55322266 0.51025391 C25.22371233 0.56606098 27.89414808 0.60604472 30.56494141 0.64697266 C37.10465249 0.75710719 43.64102786 0.92433346 50.17822266 1.13525391 C48.93191257 4.97917134 47.62051954 8.43487101 45.61572266 11.94775391 C45.18130859 12.71732422 44.74689453 13.48689453 44.29931641 14.27978516 C43.17822266 16.13525391 43.17822266 16.13525391 42.17822266 17.13525391 C39.64772864 17.20838957 37.14517429 17.22772918 34.61572266 17.19775391 C33.5493457 17.19098633 33.5493457 17.19098633 32.46142578 17.18408203 C30.70032252 17.17226255 28.9392623 17.15432654 27.17822266 17.13525391 C26.91090332 18.00037598 26.64358398 18.86549805 26.36816406 19.75683594 C25.19359915 23.0915978 23.783255 26.06293749 22.13916016 29.18994141 C21.55908203 30.29853516 20.97900391 31.40712891 20.38134766 32.54931641 C19.77806641 33.69142578 19.17478516 34.83353516 18.55322266 36.01025391 C17.63669922 37.75822266 17.63669922 37.75822266 16.70166016 39.54150391 C15.19783011 42.40817993 13.68855739 45.2719996 12.17822266 48.13525391 C3.26822266 48.13525391 -5.64177734 48.13525391 -14.82177734 48.13525391 C-13.9714045 43.88338968 -13.1342925 41.44322263 -11.16943359 37.72119141 C-10.37569336 36.20912109 -10.37569336 36.20912109 -9.56591797 34.66650391 C-9.01097656 33.62494141 -8.45603516 32.58337891 -7.88427734 31.51025391 C-7.33320312 30.46095703 -6.78212891 29.41166016 -6.21435547 28.33056641 C-2.15259052 20.63147366 -2.15259052 20.63147366 0.17822266 17.13525391 C-4.44177734 17.13525391 -9.06177734 17.13525391 -13.82177734 17.13525391 C-8.34621555 0.70856854 -8.34621555 0.70856854 0 0 Z " fill="#2E3192" transform="translate(526.82177734375,306.86474609375)"/>
<path d="M0 0 C18.48 0 36.96 0 56 0 C54.07661937 5.77014188 51.76623462 10.61312205 49 16 C43.72 16 38.44 16 33 16 C32.34 17.98 31.68 19.96 31 22 C30.19120846 23.78061946 29.34665959 25.54539209 28.46875 27.29296875 C27.98792969 28.25267578 27.50710937 29.21238281 27.01171875 30.20117188 C26.51285156 31.18666016 26.01398438 32.17214844 25.5 33.1875 C25.00113281 34.18458984 24.50226563 35.18167969 23.98828125 36.20898438 C20.2816578 43.57751331 20.2816578 43.57751331 18 47 C15.29443359 47.34057617 15.29443359 47.34057617 11.8984375 47.29296875 C10.08085937 47.2784668 10.08085937 47.2784668 8.2265625 47.26367188 C6.95554688 47.23853516 5.68453125 47.21339844 4.375 47.1875 C3.09625 47.17396484 1.8175 47.16042969 0.5 47.14648438 C-2.66708282 47.11103196 -5.83333541 47.06161441 -9 47 C-8.40625244 43.13174981 -7.24832151 40.25105932 -5.34765625 36.83984375 C-4.55391602 35.4022168 -4.55391602 35.4022168 -3.74414062 33.93554688 C-3.18919922 32.94619141 -2.63425781 31.95683594 -2.0625 30.9375 C-0.96958947 28.96770452 0.12287609 26.99766207 1.21484375 25.02734375 C1.94368774 23.72398071 1.94368774 23.72398071 2.68725586 22.39428711 C3.84131953 20.28941406 4.92646812 18.14706376 6 16 C1.38 16 -3.24 16 -8 16 C-5.78545387 10.46363468 -2.85532244 5.23475781 0 0 Z " fill="#2E3192" transform="translate(200,393)"/>
<path d="M0 0 C8.91 0 17.82 0 27 0 C22.23956588 10.17001835 17.52518718 20.22466883 12 30 C18.6 30.33 25.2 30.66 32 31 C29.36 36.28 26.72 41.56 24 47 C8.16 47 -7.68 47 -24 47 C-22.53558799 42.60676397 -21.12473818 39.0439883 -19.0234375 35 C-18.43836426 33.87118408 -17.85329102 32.74236816 -17.25048828 31.5793457 C-16.62561781 30.38607736 -16.00045026 29.19296455 -15.375 28 C-14.74067193 26.78282266 -14.10639471 25.56561881 -13.47216797 24.34838867 C-9.16923261 16.11474778 -4.71004438 8.00707545 0 0 Z " fill="#2E3192" transform="translate(635,476)"/>
<path d="M0 0 C1.20849609 0.01289063 2.41699219 0.02578125 3.66210938 0.0390625 C4.92474609 0.07257813 6.18738281 0.10609375 7.48828125 0.140625 C8.76251953 0.15867187 10.03675781 0.17671875 11.34960938 0.1953125 C14.50074966 0.24252059 17.65039265 0.30836116 20.80078125 0.390625 C20.39730469 1.19757813 19.99382812 2.00453125 19.578125 2.8359375 C19.15188843 3.68853149 19.15188843 3.68853149 18.71704102 4.55834961 C18.04981948 5.89262626 17.38232781 7.22676785 16.71459961 8.56079102 C14.46408331 13.05845097 12.21870036 17.55862623 9.97831726 22.06134033 C8.61764189 24.79526962 7.25532912 27.52838145 5.89285278 30.26141357 C5.20518911 31.64179592 4.5182409 33.02253491 3.83200073 34.40362549 C2.8559775 36.36765816 1.87747203 38.33043581 0.8984375 40.29296875 C0.32617432 41.44273193 -0.24608887 42.59249512 -0.83569336 43.77709961 C-2.19921875 46.390625 -2.19921875 46.390625 -3.19921875 47.390625 C-5.19886857 47.47820503 -7.20157985 47.49759076 -9.203125 47.48828125 C-10.41806641 47.48505859 -11.63300781 47.48183594 -12.88476562 47.47851562 C-14.16416016 47.47013672 -15.44355469 47.46175781 -16.76171875 47.453125 C-18.04498047 47.44861328 -19.32824219 47.44410156 -20.65039062 47.43945312 C-23.83337897 47.42762045 -27.01627637 47.41113568 -30.19921875 47.390625 C-29.56810673 44.48980394 -28.64891619 42.05948757 -27.29736328 39.41992188 C-26.90670685 38.65232544 -26.51605042 37.884729 -26.11355591 37.09387207 C-25.69065277 36.27398804 -25.26774963 35.454104 -24.83203125 34.609375 C-24.39664032 33.75887573 -23.96124939 32.90837646 -23.51266479 32.03210449 C-22.59169312 30.23569158 -21.66863775 28.44034561 -20.74365234 26.64599609 C-19.33096637 23.90372331 -17.92675501 21.15723273 -16.5234375 18.41015625 C-15.62680802 16.66380265 -14.7296888 14.91770038 -13.83203125 13.171875 C-13.41317657 12.35199097 -12.9943219 11.53210693 -12.56277466 10.68737793 C-6.96814889 -0.13085726 -6.96814889 -0.13085726 0 0 Z " fill="#2E3192" transform="translate(355.19921875,475.609375)"/>
<path d="M0 0 C8.91 0 17.82 0 27 0 C24.75083822 6.74748533 24.75083822 6.74748533 23.00390625 10.00390625 C22.42080688 11.10049561 22.42080688 11.10049561 21.82592773 12.21923828 C21.40899658 12.99251465 20.99206543 13.76579102 20.5625 14.5625 C19.66885668 16.23806043 18.77564454 17.91385088 17.8828125 19.58984375 C17.18140137 20.90251221 17.18140137 20.90251221 16.46582031 22.24169922 C14.93964868 25.11356582 13.43205974 27.99452282 11.9296875 30.87890625 C11.43009521 31.83788818 10.93050293 32.79687012 10.41577148 33.78491211 C9.44034866 35.65891603 8.46588136 37.53341766 7.49243164 39.40844727 C7.05020264 40.25592529 6.60797363 41.10340332 6.15234375 41.9765625 C5.76038818 42.73018066 5.36843262 43.48379883 4.96459961 44.26025391 C4 46 4 46 3 47 C1.00035018 47.08758003 -1.0023611 47.10696576 -3.00390625 47.09765625 C-4.21884766 47.09443359 -5.43378906 47.09121094 -6.68554688 47.08789062 C-7.96494141 47.07951172 -9.24433594 47.07113281 -10.5625 47.0625 C-11.84576172 47.05798828 -13.12902344 47.05347656 -14.45117188 47.04882812 C-17.63416022 47.03699545 -20.81705762 47.02051068 -24 47 C-22.80909309 43.19177949 -21.47243995 39.75382126 -19.53125 36.26953125 C-19.04688477 35.39248535 -18.56251953 34.51543945 -18.06347656 33.61181641 C-17.5475293 32.68804199 -17.03158203 31.76426758 -16.5 30.8125 C-15.42067684 28.85873434 -14.34257554 26.90429324 -13.265625 24.94921875 C-12.72228516 23.96356934 -12.17894531 22.97791992 -11.61914062 21.96240234 C-7.64676204 14.6944829 -3.83884905 7.33897613 0 0 Z " fill="#2E3192" transform="translate(584,308)"/>
<path d="M0 0 C8.91 0 17.82 0 27 0 C21.73842921 11.33959222 16.25605378 22.5300432 10.5 33.625 C10.18536804 34.23284332 9.87073608 34.84068665 9.54656982 35.46694946 C4.18351003 45.81648997 4.18351003 45.81648997 3 47 C1.00035018 47.08758003 -1.0023611 47.10696576 -3.00390625 47.09765625 C-4.21884766 47.09443359 -5.43378906 47.09121094 -6.68554688 47.08789062 C-7.96494141 47.07951172 -9.24433594 47.07113281 -10.5625 47.0625 C-11.84576172 47.05798828 -13.12902344 47.05347656 -14.45117188 47.04882812 C-17.63416022 47.03699545 -20.81705762 47.02051068 -24 47 C-22.7863638 43.14187013 -21.40847249 39.59646219 -19.53125 36.015625 C-19.04688477 35.0882251 -18.56251953 34.1608252 -18.06347656 33.20532227 C-17.28955566 31.74243774 -17.28955566 31.74243774 -16.5 30.25 C-15.97116211 29.24316162 -15.44232422 28.23632324 -14.89746094 27.19897461 C-10.07234844 18.05190693 -5.06647644 9.01534779 0 0 Z " fill="#2E3192" transform="translate(178,308)"/>
<path d="M0 0 C1.60246582 0.04713135 1.60246582 0.04713135 3.23730469 0.09521484 C4.39746094 0.11455078 5.55761719 0.13388672 6.75292969 0.15380859 C8.56277344 0.22921875 8.56277344 0.22921875 10.40917969 0.30615234 C11.63121094 0.33322266 12.85324219 0.36029297 14.11230469 0.38818359 C17.1297071 0.45890396 20.14355539 0.55756118 23.15917969 0.68115234 C22.54442652 5.27968231 20.64966451 9.01732471 18.51855469 13.07177734 C17.97246552 14.12785187 17.97246552 14.12785187 17.41534424 15.20526123 C16.2524286 17.45029393 15.08079965 19.69065225 13.90917969 21.93115234 C13.13650173 23.42175665 12.36436101 24.91263957 11.59277344 26.40380859 C7.88092433 33.55747872 4.07498898 40.63269562 0.15917969 47.68115234 C-8.75082031 47.68115234 -17.66082031 47.68115234 -26.84082031 47.68115234 C-24.59033953 40.92970999 -24.59033953 40.92970999 -23.02490234 37.88232422 C-22.50393478 36.86096375 -22.50393478 36.86096375 -21.97244263 35.81896973 C-21.60158539 35.10317749 -21.23072815 34.38738525 -20.84863281 33.64990234 C-20.46142059 32.8957605 -20.07420837 32.14161865 -19.67526245 31.36462402 C-18.85867466 29.77683838 -18.03995962 28.19014516 -17.21923828 26.60449219 C-15.97125361 24.191657 -14.73174768 21.77460555 -13.49316406 19.35693359 C-12.69549113 17.8084967 -11.8973301 16.26031112 -11.09863281 14.71240234 C-10.73182404 13.99661011 -10.36501526 13.28081787 -9.98709106 12.54333496 C-8.96428271 10.5738616 -7.91066882 8.62539627 -6.84082031 6.68115234 C-5.90713623 4.96581299 -5.90713623 4.96581299 -4.95458984 3.21582031 C-2.84082031 0.68115234 -2.84082031 0.68115234 0 0 Z " fill="#2E3192" transform="translate(491.8408203125,307.31884765625)"/>
<path d="M0 0 C0.97610229 -0.00717545 0.97610229 -0.00717545 1.97192383 -0.01449585 C3.34361192 -0.01788847 4.71538157 -0.00872994 6.08691406 0.01220703 C8.18217854 0.03899447 10.27208885 0.01245123 12.3671875 -0.01953125 C13.70313678 -0.01622702 15.03908273 -0.00982049 16.375 0 C18.19064453 0.00845947 18.19064453 0.00845947 20.04296875 0.01708984 C23.1875 0.6640625 23.1875 0.6640625 25.64453125 3.01025391 C27.1875 5.6640625 27.1875 5.6640625 26.6875 8.7890625 C25.07807266 11.87379824 24.14124489 12.91761606 21.1875 14.6640625 C18.42602539 15.05224609 18.42602539 15.05224609 15.28515625 15.0625 C14.14755859 15.06636719 13.00996094 15.07023438 11.83789062 15.07421875 C10.65388672 15.06261719 9.46988281 15.05101562 8.25 15.0390625 C7.06986328 15.05066406 5.88972656 15.06226563 4.67382812 15.07421875 C3.53494141 15.07035156 2.39605469 15.06648437 1.22265625 15.0625 C0.1850415 15.05911621 -0.85257324 15.05573242 -1.92163086 15.05224609 C-5.25457336 14.60470124 -7.14036453 13.68388342 -9.8125 11.6640625 C-10.875 8.7890625 -10.875 8.7890625 -10.8125 5.6640625 C-7.85113655 0.68417068 -5.67747173 0.02645254 0 0 Z " fill="#ED1C24" transform="translate(1100.8125,228.3359375)"/>
</svg>
